<?xml version="1.0" encoding="utf-8"?>
<!-- Generator: Adobe Illustrator 28.3.0, SVG Export Plug-In . SVG Version: 6.00 Build 0)  -->
<svg version="1.1" xmlns="http://www.w3.org/2000/svg" xmlns:xlink="http://www.w3.org/1999/xlink" x="0px" y="0px"
	 viewBox="0 0 114.01 119.77" style="enable-background:new 0 0 114.01 119.77;" xml:space="preserve">
<style type="text/css">
	.st0{display:none;}
	.st1{display:inline;}
	.st2{display:inline;fill:#FFFFFF;}
	.st3{fill:#FFFFFF;}
	.st4{display:none;opacity:0.49;}
</style>
<g id="BG" class="st0">
	<rect id="background" x="-164.85" y="-123.22" class="st1" width="800" height="400"/>
</g>
<g id="LOGO">
	<g class="st0">
		<path class="st2" d="M201.07,31.18v65.21h-12.02v-5.5c-3.35,4.28-8.29,6.8-15.09,6.8c-12.48,0-22.73-10.71-22.73-24.59
			c0-13.88,10.25-24.59,22.73-24.59c6.8,0,11.74,2.51,15.09,6.8V31.18H201.07z M189.05,73.1c0-7.82-5.5-13.13-12.85-13.13
			c-7.45,0-12.95,5.31-12.95,13.13s5.5,13.13,12.95,13.13C183.56,86.23,189.05,80.92,189.05,73.1z"/>
		<path class="st2" d="M235.35,86.79c4.66,0,8.38-1.96,10.43-4.66l9.69,5.59c-4.38,6.33-11.36,9.97-20.31,9.97
			c-15.65,0-25.52-10.71-25.52-24.59c0-13.88,9.97-24.59,24.59-24.59c13.79,0,23.57,10.9,23.57,24.59c0,1.77-0.19,3.35-0.47,4.94
			h-35.12C223.89,84.18,229.01,86.79,235.35,86.79z M245.78,68.72c-1.49-6.71-6.52-9.41-11.55-9.41c-6.43,0-10.81,3.45-12.2,9.41
			H245.78z"/>
		<path class="st2" d="M292.63,96.38l-10.06-14.16l-10.15,14.16h-13.88l17.05-23.75l-16.3-22.82h13.88l9.41,13.13l9.41-13.13h13.79
			l-16.3,22.73l17.05,23.85H292.63z"/>
		<path class="st2" d="M355.23,49.81v46.58h-12.02v-5.22c-2.79,4.19-7.64,6.52-13.88,6.52c-9.87,0-17.61-6.89-17.61-19.28v-28.6
			h12.02v27.11c0,6.33,3.82,9.59,9.22,9.59c5.87,0,10.25-3.45,10.25-11.55V49.81H355.23z"/>
		<path class="st2" d="M416.06,73.1c0,13.88-10.25,24.59-22.73,24.59c-6.8,0-11.74-2.52-15.09-6.8v24.13h-12.02V49.81h12.02v5.5
			c3.35-4.29,8.29-6.8,15.09-6.8C405.81,48.5,416.06,59.22,416.06,73.1z M404.04,73.1c0-7.82-5.5-13.13-12.95-13.13
			c-7.36,0-12.85,5.31-12.85,13.13s5.5,13.13,12.85,13.13C398.54,86.23,404.04,80.92,404.04,73.1z"/>
	</g>
	<g>
		<polygon class="st3" points="37.39,119.77 60.37,119.77 97.61,85.75 97.61,119.77 113.93,119.77 113.93,60.23 53.94,60.23 
			53.94,75.94 84.74,75.94 		"/>
		<g>
			<path class="st3" d="M57.66,0H0v119.77h23.65V22.63h34c16.09,0,28.37,9.19,33.06,23.63h23.29C108.32,19.37,86.09,0,57.66,0z"/>
		</g>
	</g>
	<g class="st4">
		<g class="st1">
			<path class="st3" d="M554.95,229.6v15.83h-2.92v-1.33c-0.81,1.04-2.01,1.65-3.66,1.65c-3.03,0-5.52-2.6-5.52-5.97
				c0-3.37,2.49-5.97,5.52-5.97c1.65,0,2.85,0.61,3.66,1.65v-5.86H554.95z M552.03,239.77c0-1.9-1.33-3.19-3.12-3.19
				c-1.81,0-3.14,1.29-3.14,3.19c0,1.9,1.33,3.19,3.14,3.19C550.7,242.96,552.03,241.67,552.03,239.77z"/>
			<path class="st3" d="M563.28,243.1c1.13,0,2.04-0.47,2.53-1.13l2.35,1.36c-1.06,1.54-2.76,2.42-4.93,2.42
				c-3.8,0-6.2-2.6-6.2-5.97c0-3.37,2.42-5.97,5.97-5.97c3.35,0,5.72,2.65,5.72,5.97c0,0.43-0.05,0.81-0.11,1.2h-8.53
				C560.49,242.47,561.74,243.1,563.28,243.1z M565.81,238.71c-0.36-1.63-1.58-2.28-2.8-2.28c-1.56,0-2.62,0.84-2.96,2.28H565.81z"
				/>
			<path class="st3" d="M577.19,245.43l-2.44-3.44l-2.47,3.44h-3.37l4.14-5.77l-3.96-5.54h3.37l2.28,3.19l2.28-3.19h3.35l-3.96,5.52
				l4.14,5.79H577.19z"/>
			<path class="st3" d="M592.38,234.12v11.31h-2.92v-1.27c-0.68,1.02-1.85,1.58-3.37,1.58c-2.4,0-4.27-1.67-4.27-4.68v-6.94h2.92
				v6.58c0,1.54,0.93,2.33,2.24,2.33c1.42,0,2.49-0.84,2.49-2.8v-6.11H592.38z"/>
			<path class="st3" d="M607.15,239.77c0,3.37-2.49,5.97-5.52,5.97c-1.65,0-2.85-0.61-3.66-1.65v5.86h-2.92v-15.83h2.92v1.33
				c0.81-1.04,2.01-1.65,3.66-1.65C604.67,233.8,607.15,236.4,607.15,239.77z M604.24,239.77c0-1.9-1.33-3.19-3.14-3.19
				c-1.79,0-3.12,1.29-3.12,3.19c0,1.9,1.33,3.19,3.12,3.19C602.9,242.96,604.24,241.67,604.24,239.77z"/>
		</g>
		<polygon class="st2" points="515.21,251.11 520.79,251.11 529.83,242.85 529.83,251.11 533.79,251.11 533.79,236.65 
			519.23,236.65 519.23,240.46 526.71,240.46 		"/>
		<g class="st1">
			<path class="st3" d="M520.13,222.03h-14v29.08h5.74v-23.59h8.26c3.91,0,6.89,2.23,8.03,5.74h5.65
				C532.43,226.73,527.03,222.03,520.13,222.03z"/>
		</g>
	</g>
</g>
</svg>
