<?xml version="1.0" standalone="no"?>
<!DOCTYPE svg PUBLIC "-//W3C//DTD SVG 20010904//EN"
 "http://www.w3.org/TR/2001/REC-SVG-20010904/DTD/svg10.dtd">
<svg version="1.0" xmlns="http://www.w3.org/2000/svg"
 width="960.000000pt" height="960.000000pt" viewBox="0 0 960.000000 960.000000"
 preserveAspectRatio="xMidYMid meet">
<metadata>
Created by potrace 1.14, written by Peter Selinger 2001-2017
</metadata>
<g transform="translate(0.000000,960.000000) scale(0.100000,-0.100000)"
fill="#000000" stroke="none">
<path d="M230 4800 l0 -4800 948 0 948 0 -1 3890 c0 3450 2 3891 15 3894 22 5
2908 -2 2960 -7 25 -3 72 -8 105 -11 54 -5 82 -9 150 -20 49 -8 112 -19 130
-23 11 -3 38 -9 60 -13 72 -16 79 -18 130 -31 28 -8 52 -16 55 -19 3 -3 14 -6
25 -8 29 -4 238 -82 253 -94 6 -6 12 -7 12 -4 0 9 264 -125 268 -136 2 -4 9
-8 16 -8 6 0 56 -29 110 -65 233 -155 423 -326 595 -535 51 -61 113 -148 176
-245 58 -88 192 -344 229 -435 10 -25 24 -58 31 -75 7 -16 23 -60 35 -96 l22
-67 934 0 934 0 -4 22 c-3 11 -5 21 -6 21 -1 0 -5 15 -15 60 -2 11 -7 35 -10
53 -2 19 -8 38 -12 45 -3 6 -10 27 -14 46 -4 20 -19 74 -33 121 -15 47 -29 94
-31 105 -6 25 -35 113 -46 140 -5 11 -22 56 -38 100 -35 96 -88 225 -132 320
-18 39 -32 73 -31 78 1 4 -2 7 -8 7 -6 0 -9 3 -8 8 2 11 -47 109 -144 282 -64
115 -73 130 -80 130 -5 0 -8 5 -8 11 0 6 -14 30 -30 54 -16 24 -30 48 -30 53
0 5 -9 17 -20 27 -11 10 -20 22 -20 27 0 5 -5 14 -10 21 -6 7 -45 59 -86 117
-41 58 -86 117 -100 132 -13 15 -24 30 -24 33 0 3 -10 16 -22 29 -13 13 -38
42 -57 65 -93 116 -337 366 -465 476 -38 33 -77 68 -87 78 -11 9 -22 17 -25
17 -4 0 -16 10 -28 23 -26 27 -217 169 -311 231 -38 25 -74 49 -80 54 -20 15
-146 92 -152 92 -2 0 -17 8 -31 18 -43 30 -279 155 -294 157 -4 0 -13 6 -20
13 -6 6 -17 12 -23 12 -6 0 -38 13 -71 28 -32 16 -108 48 -169 71 -60 24 -117
46 -125 50 -8 4 -62 22 -120 40 -58 19 -114 38 -125 43 -11 4 -29 10 -40 12
-11 3 -73 18 -137 35 -65 17 -128 33 -140 35 -13 3 -36 8 -52 11 -16 3 -55 12
-88 20 -43 10 -58 10 -58 2 0 -9 -2 -9 -8 -1 -4 6 -38 17 -77 23 -77 13 -88
14 -285 36 -25 3 -67 8 -95 11 -27 4 -1167 8 -2532 11 l-2483 4 0 -4801z"/>
<path d="M4556 4770 c-2 -3 -2 -286 -2 -630 l1 -625 1230 -2 c677 0 1232 -2
1234 -2 2 -1 -7 -10 -20 -22 -21 -18 -160 -145 -243 -223 -17 -16 -73 -67
-124 -115 -52 -47 -117 -108 -145 -135 -29 -26 -92 -85 -141 -130 -48 -44
-110 -101 -136 -126 -48 -44 -175 -162 -248 -229 -20 -18 -69 -63 -108 -100
-38 -36 -117 -109 -174 -161 -57 -52 -120 -111 -140 -130 -20 -19 -83 -78
-140 -130 -184 -170 -222 -204 -265 -245 -24 -22 -80 -74 -125 -115 -45 -41
-106 -97 -135 -125 -29 -27 -85 -79 -124 -115 -39 -36 -98 -91 -132 -122 -34
-32 -65 -58 -70 -58 -5 0 -9 -7 -9 -15 0 -8 -3 -15 -7 -15 -9 0 -83 -68 -344
-310 -20 -19 -79 -73 -130 -120 -50 -47 -113 -105 -140 -130 -47 -44 -194
-181 -255 -236 -150 -138 -244 -226 -281 -261 -24 -24 -45 -43 -47 -43 -2 0
-27 -22 -55 -50 l-52 -50 924 0 923 0 20 23 c11 12 54 51 94 87 41 36 91 81
112 101 21 20 73 68 115 107 126 114 135 122 194 176 106 98 247 227 267 244
17 15 158 144 232 212 111 102 208 191 226 207 40 34 207 188 246 226 21 20
40 37 42 37 3 0 83 74 193 178 25 23 47 42 50 42 2 0 21 17 41 38 21 20 78 73
127 117 49 44 100 91 114 103 117 107 180 165 227 209 30 29 56 53 58 53 2 0
24 19 48 43 25 23 68 62 95 87 27 25 89 82 139 127 140 128 168 153 177 153 4
0 7 7 7 15 0 8 3 15 8 15 4 0 32 23 62 50 30 28 62 55 70 59 13 8 15 -142 15
-1347 l0 -1357 655 0 655 0 0 2379 c0 1963 -2 2379 -13 2384 -17 6 -4793 9
-4796 2z"/>
</g>
</svg>
